<?xml version="1.0" standalone="no"?>
<!DOCTYPE svg PUBLIC "-//W3C//DTD SVG 1.1//EN" "http://www.w3.org/Graphics/SVG/1.1/DTD/svg11.dtd" >
<svg xmlns="http://www.w3.org/2000/svg">
<metadata>
This is a custom SVG webfont generated by Font Squirrel.
Copyright   : Deutsch Gothic Font Created by J Fordyce c 1994 Generated by Fontographer 35
</metadata>
<defs>
<font id="webfontdtVc343u" horiz-adv-x="522" >
<font-face units-per-em="2048" ascent="1638" descent="-410" />
<missing-glyph horiz-adv-x="1087" />
<glyph unicode=" "  horiz-adv-x="1087" />
<glyph unicode="&#x09;" horiz-adv-x="1087" />
<glyph unicode="&#xa0;" horiz-adv-x="1087" />
<glyph unicode="!" horiz-adv-x="514" d="M39 1145q0 90 45 174q74 139 264 305h51l4 -27q-20 -25 -41 -84q-18 -52 -18 -135l39 -618q0 -98 -37 -185q-29 -63 -119 -180q-33 -47 -61 -76q-49 -51 -74 -51q-37 0 -37 37q18 35 33 84q14 45 14 105q0 51 -39 337q-23 170 -22 275q-2 12 -2 39zM141 121q0 47 111 155 q61 61 96 62q27 0 76 -51q49 -52 49 -80q0 -39 -82 -123q-84 -86 -129 -86q-20 0 -72 47q-49 45 -49 76z" />
<glyph unicode="&#x22;" horiz-adv-x="591" d="M55 1606h189l-45 -592h-76l-12 10h-11zM342 1606h190l-47 -592h-73l-11 10h-12z" />
<glyph unicode="#" horiz-adv-x="1148" d="M66 592l18 125h242l26 196h-241l18 125h242l49 359h131l-49 -359h205l49 359h131l-49 -359h249l-20 -125h-248l-28 -196h251l-18 -125h-260v12l12 -2l-57 -397h-131l55 387h-205l-57 -387h-129l55 387h-241zM455 717h207l28 209l12 -2v-11h-221z" />
<glyph unicode="$" horiz-adv-x="765" d="M31 471q0 37 45 84q20 23 155 133q-8 18 -84 49q-74 31 -73 131q0 132 123 234q59 51 213 127v209h59v-195q78 0 127 -8q123 -18 123 -76q0 -45 -49 -100q-51 -57 -105 -58q-6 0 -92 37q-90 39 -133 39q-8 0 -49 -20q-39 -20 -39 -37q0 -57 242 -109q244 -53 243 -209 q0 -94 -80 -180l-174 -174v-172h-65v57q0 33 2 48q0 33 -14 32q-20 -4 -66 -12q-23 -4 -66 -4q-55 0 -139 45q-104 55 -104 129zM274 608q0 -29 41 -59.5t91 -30.5q39 0 65.5 16.5t26.5 43.5q0 52 -86 79q-33 8 -61.5 16.5t-57.5 14.5q0 -37 -6 -53q-5 -11 -13 -27z" />
<glyph unicode="%" horiz-adv-x="1236" d="M59 1179.5q0 143.5 78 247.5q39 53 88 99q55 51 107 86q68 -27 108 -56q47 -33 95 -86q82 -96 81 -229q0 -135 -65 -254q-68 -123 -201 -194l-4 8l-4 -10q-59 25 -109 61q-57 43 -94 92q-80 92 -80 235.5zM180 55l801 1542l92 -49l-803 -1554l-86 47l6 8zM197 1266 q0 -104 73 -197q72 -80 172 -115l-4 -10l-8 6q8 10 21 35q10 20 16 47q16 35 16 84q0 123 -69 207q-59 74 -170 115q-12 -16 -25 -54l-20 -71l-2 -23v-24zM633 375q0 78 16 127q18 53 62 119q37 51 86 100q46 46 104 86q111 -39 205 -145q84 -100 84 -226q0 -141 -71.5 -262 t-188.5 -182v-15q-131 55 -215 158q-82 101 -82 240zM770 457q0 -59 16 -101q16 -43 54 -92q74 -84 176 -119l-4 -10l-11 6q18 27 21 33q6 15 18 55q12 41 13 82q0 117 -68 203q-57 82 -170 119l-22 -55q-8 -18 -11 -33l-8 -33l-4 -31v-24z" />
<glyph unicode="&#x26;" horiz-adv-x="1044" d="M33 373q0 119 73 241q23 37 91 134l57 57q20 18 20 26q-16 27 -28 82q-12 52 -13 123q0 90 50 195q51 109 149 194q90 80 137 117q76 63 92.5 63.5t92.5 -143.5q74 -141 73 -166q0 -25 -131 -137t-131 -123q49 -78 82 -118q96 -125 199 -195q34 34 37 43q-2 8 -2 22 q0 51 -13 54q-10 2 -10 20q0 40 117 117h29q8 -37 8 -51q-2 -8 -2 -21q0 -84 -35 -153l-78 -101q46 -49 80 -123q33 -72 33 -168q0 -168 -103 -323q-88 -135 -182 -160q4 20 4 39v57q0 143 -20 234q-31 139 -107 166l-375 -363q-74 33 -135 140q-59 100 -59 221zM258 625 q0 -71 86 -179q29 -33 88 -94q4 4 60 51q43 37 43 54q0 14 -111 129q-72 74 -107 137h-20q-10 -27 -25 -64q-4 -16 -14 -34zM453 1284q0 -35 16 -84q14 -41 53 -84l68 51q35 29 35 54q0 27 -54 125q-33 57 -47 57q-23 0 -47 -43t-24 -76z" />
<glyph unicode="'" horiz-adv-x="294" d="M55 1606h189l-45 -592h-76l-12 10h-11z" />
<glyph unicode="(" horiz-adv-x="661" d="M57 684q0 293 154 557q76 129 172 238q111 125 211 198l24 -28l-65 -68l-55 -65q-65 -80 -111 -154q-41 -63 -82 -162q-68 -160 -67 -385v-33l2 -34q0 -104 36 -244q27 -117 95 -228q37 -61 92 -116l112 -107l-124 -159q-188 133 -293 346q-101 213 -101 444z" />
<glyph unicode=")" horiz-adv-x="626" d="M27 -80l47 51l47 54q135 156 211 329q74 170 74 402l-3 57l-2 53q-8 68 -16 127q-6 41 -25 97q-27 94 -86 204q-27 45 -49 72q-16 18 -39 41l-102 98l-6 6l-8 11l123 155q190 -131 292 -344q100 -209 101 -444q0 -299 -150 -559q-151 -261 -387 -436z" />
<glyph unicode="*" horiz-adv-x="774" d="M70 1386l96 80q15 -12 49 -36q20 -12 49 -33l25 -13l57 -24q0 18 -6 37q0 2 -5 19.5t-9 27.5l-39 104l96 70l6 -8l8 8l92 -70l-43 -106l-12 -88q20 6 29 10q18 8 35 20l75 54l11 10l18 18l109 -73l-54 -121l-63 6l-51 4l-51 -4l-35 -4l30 -33l54 -43l14 -10l23 -21 q12 -4 32 -28l-39 -113l-129 10l-8 51q-2 10 -18 58q-4 25 -10 37q-4 12 -9.5 22t-7.5 15q-10 -20 -16 -35l-19 -43q-12 -35 -24 -105l-123 -10l-41 125q6 4 21.5 12t19.5 11q10 6 53 40q27 23 59 62l-36 6l-56 2l-41 -2q-16 0 -34 -6l-15 -2l-24 -2z" />
<glyph unicode="+" horiz-adv-x="800" d="M53 688v262l193 -8q6 29 6 90q0 63 16 92h240q6 -49 6 -88v-45q0 -8 -1 -23.5t-1 -25.5h236v-264q-12 -2 -31 -2q-80 0 -113 2q-16 0 -47 1t-45 3l4 -193h-272l8 187q-8 2 -33 2q-8 0 -19.5 1t-15.5 1h-59h-43q-13 0 -29 8z" />
<glyph unicode="," horiz-adv-x="364" d="M8 -172q0 8 53 74q51 63 52 84q0 16 -25 32q-57 45 -57 66q49 94 59 111q66 111 94 110q31 0 105 -55q47 -35 47 -55q0 -14 -37 -84q-35 -66 -90 -142l-68 -94q-63 -84 -94 -84q-12 0 -24 12q-15 15 -15 25z" />
<glyph unicode="-" d="M33 590v100v160h442v-260h-442z" />
<glyph unicode="." horiz-adv-x="399" d="M31 113q55 100 69 123q76 121 113 120q35 0 98 -45q45 -33 45 -63q0 -33 -63 -135q-70 -113 -111 -113q-27 0 -90 47q-61 48 -61 66z" />
<glyph unicode="/" horiz-adv-x="1105" d="M41 -45l922 1776l116 -68l-917 -1788l-119 66l6 6z" />
<glyph unicode="0" horiz-adv-x="1445" d="M35 709q0 176 92 358q55 111 152 223q109 121 241 209q158 100 309 100q268 0 435 -262q147 -236 147 -555q0 -131 -51 -247q-86 -188 -293 -338q-125 -88 -170 -113q-133 -72 -301 -72q-252 0 -412 219q-149 202 -149 478zM344 995q0 -92 18 -172q31 -135 97 -278 q80 -178 186 -269q84 -70 170 -69q125 0 197 90q70 88 69 248q0 154 -45 311q-45 154 -127 279q-94 143 -178 200q-59 41 -110 41q-121 0 -199 -116q-78 -120 -78 -265z" />
<glyph unicode="1" horiz-adv-x="739" d="M33 1335q0 27 51 60q59 39 111 84l92 82q51 35 84 34q51 0 104 -59q51 -57 51 -111v-1200l15 -14q15 -12 24 -12q6 2 27 10q33 14 72 45h38l7 -21q0 -41 -136 -127q-152 -98 -260 -98q-59 0 -94 55q-25 35 -24 74v1133q0 33 -11 47q-8 12 -32 12q-16 0 -51 -8t-60 -4 q-8 10 -8 18z" />
<glyph unicode="2" horiz-adv-x="1175" d="M43 10v56q35 29 74 75l282 365q125 160 179 248q90 145 90 231q0 45 -25 115q-22 61 -61 104q-27 27 -82 58q-77 43 -117 43q-63 0 -170 -86t-125 -86q-45 0 -45 36q0 33 94 138q92 102 176 157q111 72 129 82q104 57 172 58q141 0 258 -111t117 -262q0 -147 -82 -268 l-121 -164l-178 -242q-123 -160 -123 -168q0 -31 39 -37q37 -6 72 -6q37 0 57.5 2t32.5 2q190 0 283 49l139 109q8 0 20 -4q9 -3 13 -6v-41q-41 -104 -127 -238q-121 -184 -195 -184h-663l-31 -6q-2 0 -43 -19h-39z" />
<glyph unicode="3" horiz-adv-x="1140" d="M39 219q0 68 133 236q131 166 188 166q47 0 48 -35q0 -37 -76 -131q-35 -45 -35 -68q16 -37 41 -57q66 -59 178 -60q96 0 176 62q96 74 96 198q0 92 -49 162q-43 59 -100 88q-76 37 -170 41q-88 2 -88 39q0 16 108 154q76 92 164 227q-25 25 -39 25h-333q-23 0 -86 -52 q-66 -53 -91 -53q-43 0 -43 33q0 18 52 76q70 78 147 155q109 111 137 131q55 43 88 43h557l6 -6l3 -4q4 -4 4 -26q0 -63 -152 -211q-150 -147 -149 -205q0 -14 120 -57q84 -33 138 -80q39 -37 69 -101q25 -51 25 -133q0 -90 -43 -182q-63 -135 -229 -301 q-137 -137 -218 -193q-133 -88 -266 -88q-111 0 -207 51q-104 60 -104 156z" />
<glyph unicode="4" horiz-adv-x="1333" d="M37 537q0 41 100 186q96 139 283 367l121 145q49 57 106 117q55 57 146 161q70 82 106 82l29 -6v-770q35 -18 55 -18q6 0 13 2t10 2q88 0 159 55l49.5 45t57.5 51q4 -2 9 -6t7 -4q6 -4 6 -35q0 -43 -26 -77q-23 -27 -41 -52q-115 -170 -170 -223l-107 -70 q-18 -25 -18 -53q2 -18 2 -41q0 -55 10 -106q8 -45 23 -45q18 0 39 16q59 51 84 59q14 -29 14 -34q0 -33 -119 -146q-144 -135 -264 -135q-86 0 -111 232q-25 229 -43 253h-508q-15 9 -18 13q-4 4 -4 35zM387 819l19 -8h145l31 23v81v29q0 43 -7 98q-46 -40 -122 -135 q-25 -31 -66 -88z" />
<glyph unicode="5" horiz-adv-x="1263" d="M35 182q0 65 98 215t154 150q39 0 41 -88t24 -125q23 -25 49 -47q61 -47 136 -47q88 0 155 61q86 76 86 219.5t-92 243.5q-94 104 -219 119q-37 4 -39 4q-41 6 -45 10q-10 10 -10 47q12 88 18 170q8 115 8 162q0 39 -14 45q-16 8 -53 8v51q45 53 123 121q117 98 159 98 h469q29 0 74 23t51 23l31 -15v-24q-47 -76 -113 -146q-92 -98 -168 -125q-49 -18 -163 -24q-113 -6 -113 -82q0 -63 70 -78q121 -27 209 -96q90 -70 126 -146q41 -82 41 -159q0 -113 -57 -234q-31 -61 -90 -143q-162 -211 -293 -289t-336 -78q-119 0 -207 35 q-110 46 -110 141z" />
<glyph unicode="6" horiz-adv-x="1122" d="M39 514q0 133 53 311q49 164 135 297q115 172 150 213q23 25 172 152q111 94 164 123q37 20 63 20q39 0 39 -41q0 -12 -110 -116q-90 -86 -164 -187q-31 -41 -84 -149q-59 -121 -60 -166q0 -6 6 -13q8 -8 17 -8q49 27 121 62q121 59 182 59q111 0 227 -135 q135 -154 135 -352q0 -108 -110 -283q-113 -178 -217 -225q-74 -35 -127 -53q-41 -14 -70 -15q-45 4 -61 4q-229 0 -353 160q-108 139 -108 342zM367 692q0 -135 110 -272q119 -150 254 -150q23 0 31 15q10 16 10 63q0 143 -98.5 278.5t-202.5 135.5q-35 0 -72 -17 q-32 -14 -32 -53z" />
<glyph unicode="7" horiz-adv-x="1097" d="M31 33q0 18 100 143q68 84 92 127q31 47 74 143l74 168q94 190 166 371q51 133 81 236q0 43 -305 43q-43 0 -88 -15q-51 -16 -90 -49h-59v47q143 203 272 281q100 63 221 63q27 0 109 -10q66 -8 113 -8q16 0 46.5 1t43.5 3q98 12 145 49h37l6 -29l-76 -143 q-76 -150 -129 -268l-106 -244q-70 -166 -70 -170q-53 -106 -108 -203q-88 -152 -136 -213q-86 -108 -172 -190q-102 -96 -217 -164q-10 2 -16 10q-8 9 -8 21z" />
<glyph unicode="8" horiz-adv-x="1062" d="M39 365q0 74 74 172l149 194q-57 51 -100 113q-45 63 -45 139q0 90 73 203q90 121 115 157q117 166 187 211q70 47 161 48q129 0 225.5 -74t96.5 -201q0 -135 -115 -260q-113 -121 -112 -168q119 -78 196 -143q90 -78 90 -160q0 -47 -45 -131q-66 -117 -182 -238 l-75 -75.5l-55 -56t-20 -17.5q-88 -66 -213 -66q-172 0 -299 133q-106 114 -106 220zM328 535q0 -90 108 -170q104 -76 189 -76q43 0 86 39q41 37 41 78q0 70 -166 169q-145 88 -189 89q-16 0 -42.5 -47t-26.5 -82zM371 1196q0 -71 110 -154q100 -74 125 -73q18 0 43 49 t25 80q0 53 -60 112q-68 68 -151 68q-41 0 -66 -23q-26 -24 -26 -59z" />
<glyph unicode="9" horiz-adv-x="1097" d="M43 985q0 197 236 414q217 201 360 200q135 0 270 -141q158 -166 158 -403q0 -162 -70 -346q-70 -186 -147 -273q-150 -166 -258 -258q-201 -170 -316 -170q-8 0 -22 10q-10 8 -18 19q108 71 221 196q115 127 223 345v28q-4 2 -9 4t-9 4q-86 -40 -160 -67 q-76 -29 -129 -29q-111 0 -213 125q-117 141 -117 342zM362 1200q0 -168 82 -274q102 -133 193 -133q46 0 68 12q33 18 32 59q0 188 -119 324q-102 115 -212 115q-25 0 -35 -31q-9 -27 -9 -72z" />
<glyph unicode=":" horiz-adv-x="417" d="M43 301q18 49 55 127q61 125 95 125q41 -20 69 -37q70 -43 70 -72q0 -35 -56 -133q-61 -111 -100 -110q-33 0 -82 37q-51 38 -51 63zM74 907q25 59 57 115q63 115 107 115q23 0 82 -39t59 -62q0 -45 -94 -170q-55 -70 -82 -69q-20 0 -76 43q-53 40 -53 67z" />
<glyph unicode=";" horiz-adv-x="372" d="M12 -160q0 12 49 76q47 61 48 76q0 10 -37 40.5t-37 63.5q0 16 55 114.5t84 98.5q14 0 78 -39q66 -41 65 -59q0 -16 -22 -61q-33 -61 -90 -152q-35 -55 -101 -133q-49 -61 -63 -62q-8 0 -18 13q-11 14 -11 24zM57 604l60 119q72 123 102 123q29 0 90 -51q35 -31 35 -47 q0 -33 -61.5 -137.5t-98.5 -104.5q-25 0 -90 49q-37 31 -37 49z" />
<glyph unicode="&#x3c;" horiz-adv-x="1024" d="M68 596v186l886 437v-218l-653 -313l653 -313v-217z" />
<glyph unicode="=" horiz-adv-x="688" d="M55 485v88v154h586q0 -25 -4 -119t-4 -123h-578zM55 866v101v159h578q0 -16 4 -147q0 -29 1 -55.5t2 -40t1 -17.5h-586z" />
<glyph unicode="&#x3e;" horiz-adv-x="1024" d="M70 158v217l653 313l-651 316l-2 215l886 -439v-184z" />
<glyph unicode="?" horiz-adv-x="792" d="M39 1229q0 12 74 110q76 100 133 150q43 37 102 78q82 51 150 51q111 0 190 -86q74 -80 74 -172t-115 -313.5t-115 -286.5q0 -55 41 -103q35 -37 66 -43q6 -2 33 4q16 4 33 5q23 0 22 -27q0 -39 -94 -131q-35 -35 -82 -68q-57 -41 -96 -41q-89 0 -148 86q-45 63 -45 117 q0 66 109 234q111 172 110 241q0 104 -67.5 186.5t-143.5 82.5q-41 0 -88 -31q-102 -70 -108 -70q-35 0 -35 27zM326 137q0 35 86 127t141 92q12 0 43 -24q82 -63 82 -113q0 -61 -98 -141q-88 -74 -125 -74q-16 0 -70 41q-59 47 -59 92z" />
<glyph unicode="@" horiz-adv-x="1400" d="M39 791q0 270 178 446q182 178 399 221l58 8l61 2q246 0 436 -161q188 -160 189 -424h-10h10q0 -154 -88 -277q-84 -117 -193 -188q-18 -12 -49 -31q-23 -14 -63 -33q-45 -27 -95 -41q-31 20 -47 37q-18 18 -32 45q-2 6 -6.5 17.5t-6.5 17.5t-10 51l-209 -170 q-59 41 -96 95q-37 51 -43 126q0 92 51 173q14 23 47 67q28 37 55 68l-145 258l25 -2h10h8h8h25l18 4q18 0 37 6q37 12 45 16q37 9 68 43l16 -4q12 -2 19 -8l92 -41q23 -12 47 -14q37 -4 53 -4q25 0 33 6q25 18 35 33l47 -25l-27 -35q-10 -18 -12 -24l-16 -43l-11 -62v-82 v-280v-11l-2 -20v-12v-4l6 -46q2 -10 23 -14q18 0 49 25q27 18 35 24t12 11.5t12.5 12.5t18.5 17q47 43 106 137q49 83 50 172q0 203 -141.5 350.5t-389.5 147.5q-237 0 -412 -178q-174 -176 -174 -399l2 -45q0 -23 5 -43q29 -203 172 -363q147 -164 399 -164q80 0 151 17 q68 16 127 45q109 66 170 141l31 37l29 43l108 6q-2 -6 -7 -17.5t-7 -15.5q-8 -18 -18 -35q-23 -41 -35 -51q-74 -98 -219.5 -184t-335.5 -86q-287 0 -481.5 213t-194.5 498zM520 1036l105 -186l139 -62v179h12l-4 -11zM580 635q0 -47 28 -94q25 -33 29 -37q2 -2 35 -33 l92 74v194h12l-4 -12l-160 68l-24 -74z" />
<glyph unicode="A" horiz-adv-x="1488" d="M35 121q0 29 22 51q20 20 49 21q66 0 68 -70t55 -70q117 0 160 119q29 82 29 229q0 76 -10 205l-21 244q0 147 59 272q53 109 150 211q49 53 195 180l-15 25h-409q-41 0 -72 -8q-29 -10 -60.5 -19.5l-64.5 -19.5v22l22.5 37t16.5 27q41 66 51 65q6 0 33 -12 q33 -14 49 -14h1102v-1606h-463v764h-285q-20 -25 -53 -149q-70 -285 -174 -473q-35 -70 -98 -121q-74 -57 -146 -58q-53 0 -114 37q-76 45 -76 111zM707 893h258v614q-61 -18 -125 -133q-27 -41 -56 -119q-16 -45 -39 -131q-37 -160 -38 -161v-70z" />
<glyph unicode="B" horiz-adv-x="1376" d="M8 1618q0 20 18.5 47t41.5 27q45 0 63.5 -74t104.5 -74q74 12 140 21.5t113 15.5q123 18 236 18q195 0 379 -104q215 -123 215 -303q0 -31 -119 -88t-119 -82q0 -12 125 -113q127 -102 127 -125v-454q0 -100 -104 -199q-131 -121 -330 -121q-90 0 -344 47 q-111 20 -176 21q-43 0 -90 -8q-63 -12 -139 -33q-2 4 -6.5 10t-6.5 12q18 27 19 29q16 33 16 80v1245q0 41 -82 92.5t-82 112.5zM612 946q0 -45 27 -45q70 0 158 117q90 119 90 229q0 115 -35 180q-45 84 -156 84q-20 2 -37 2q-4 0 -16 -4q-9 -3 -31 -18v-545zM618 193 q0 -25 25 -41q23 -14 66 -15q115 0 151 80q27 53 27 199v76v81q0 174 -27 226q-29 53 -82 53q-49 0 -108 -66q-27 -31 -52 -65v-528z" />
<glyph unicode="C" horiz-adv-x="1333" d="M43 821q0 293 201 529q211 246 506 245q78 0 176 -34l196 -72q40 0 99 55q29 29 41 29t26.5 -14.5t14.5 -24.5q0 -35 -146 -223l-250 -320l-170 -225q-106 -139 -108 -141q-8 -8 -72 -93q-33 -39 -33 -73q0 -127 86 -231.5t207 -104.5q115 0 195 102q70 90 69 203h43 q43 -27 107 -51q51 -18 51 -41q0 -100 -178 -225q-139 -96 -320 -97q-188 0 -295 54l-180 116q-8 0 -94 -108q-53 -68 -55 -70h-78l-4 12.5t-4 10.5q0 16 73 112q76 98 76 129q-78 94 -123 217q-57 148 -57 334zM502 766q0 -8 4 -45l6 -49q55 35 90 88l74 108 q84 100 131 164q119 158 119 262q0 78 -43 131.5t-117 53.5q-127 0 -195 -170q-68 -172 -67 -451q0 -10 -1 -27.5t-1 -23.5v-41z" />
<glyph unicode="D" horiz-adv-x="1454" d="M10 1651q0 12 20.5 32.5t32.5 20.5q31 -43 113 -82q78 -37 219 -37q43 0 150 12q90 10 180 11q336 0 526 -228q176 -213 176 -536q0 -332 -165 -568q-184 -258 -482 -258q-100 0 -223 29q-131 31 -201 31q-74 0 -110 -15q-43 -16 -90 -57h-39l-6 37q0 23 26.5 57.5 t26.5 61.5v1331q0 35 -76 72q-78 37 -78 86zM623 147l49 -6q158 0 223 238q39 143 39 364v56q0 315 -47 477q-49 170 -142 231h-122v-1360z" />
<glyph unicode="E" horiz-adv-x="1298" d="M41 819q0 279 178 506q215 270 569 270q90 0 173 -14q43 -12 129 -33q6 0 75 47q31 23 56 23q49 0 49 -51q0 -39 -21 -66q-2 -4 -9 -10l-20.5 -17.5t-23.5 -21.5v-1237q0 -31 41 -76t41 -78q0 -29 -16 -38q-20 -14 -41 -15q-27 0 -68 29q-39 27 -55 26q-12 0 -51 -14 q-78 -29 -277 -29q-311 0 -520 237.5t-209 561.5zM518 674q0 -211 88 -375q98 -182 266 -182q37 0 105 18q78 20 113 41v1227q0 47 -115 84q-10 4 -27.5 7t-44 9t-47.5 10q-152 0 -254 -202q-84 -164 -84 -297q0 -37 33 -51l16 -5h244q40 0 74 37h45v-252q-12 0 -113 21 q-76 14 -131 14q-125 0 -145 -12q-23 -12 -23 -92z" />
<glyph unicode="F" horiz-adv-x="1314" d="M33 225l213 86h24q0 -4 -4 -45q0 -8 -1 -17t-2 -13.5t-1 -6.5q0 -61 39 -106t113 -45q80 0 139 63q57 59 57 140q0 57 -75 217q-90 193 -191 311h-311v20q88 94 149 127q46 25 92 25q16 -2 33 -2q18 0 25 12q10 20 12 56q18 158 260 294q-18 33 -121 70q-123 45 -209 45 q-53 0 -106 -12q-51 -12 -84 -35h-29q49 80 168 133t283 53q162 0 260 -26q238 -61 289 -62q63 0 129 4q78 14 102 17q-88 -117 -225 -166q-98 -39 -219 -39q-43 0 -88 4l-56 8q-34 -12 -43 -43q-10 -35 -10 -84q0 -78 49 -159q49 -84 94 -84h394q-55 -152 -183 -156 q-123 -3 -122 -31q25 -51 41 -116q18 -71 18 -154q0 -219 -170 -365q-160 -135 -387 -135q-125 0 -221 66q-98 65 -125 151z" />
<glyph unicode="G" horiz-adv-x="1368" d="M35 827q0 133 59 277q49 121 135 223q66 72 99 103q53 47 73 47q12 0 29 -9q51 -23 141 -22q121 0 226 49q106 47 213 100q78 -41 116 -63q121 -72 121 -107q0 -20 -110 -84q-113 -66 -125 -65q-23 0 -103 67.5t-108 67.5q-49 -10 -111 -20q-111 -25 -121 -33 q-22 -18 -49 -178q-33 -195 -33 -435q0 -350 88 -501q74 -127 218 -127q27 0 30 4l5 3q5 3 13.5 9l16.5 12v576q-20 20 -31 27l-12 7q-12 7 -18 11q16 35 166 121l151 80q12 0 98 -61.5t131 -100.5q-12 -14 -21 -28.5t-19 -26.5q-16 -27 -17 -58v-608q-16 -10 -38.5 -10 t-30.5 2q-55 12 -76 12q-8 0 -24.5 -3t-22.5 -3q-23 -2 -136 -37q-106 -33 -194 -33q-311 0 -528 260q-201 244 -201 555z" />
<glyph unicode="H" horiz-adv-x="1357" d="M29 1595h1101v-77h-610v-435l15 -14q8 -8 16 -8q39 0 151 65l250 148q27 0 111 -84q104 -104 174 -236q47 -80 70 -178q20 -84 20 -176q0 -184 -94 -342q-80 -131 -229 -248q-111 -86 -277 -170h-20l155 230q61 111 62 327q0 190 -74 344q-33 68 -125 154t-158 86 q-53 0 -53 -51v-912h-436v1500q0 27 -16.5 32.5t-32.5 44.5z" />
<glyph unicode="I" horiz-adv-x="761" d="M31 1526v76h686v-76q-45 -14 -76 -37v-1481h-448v1481q-27 20 -50 29q-20 8 -45 8h-67z" />
<glyph unicode="J" horiz-adv-x="1077" d="M31 1296v31q68 154 162 217q96 66 247 66q117 0 213 -35q100 -37 195 -37q43 0 70 2q59 4 88 8v-37q-66 -115 -168 -176q-100 -61 -201 -61q-23 0 -231 51q-92 25 -170 25q-47 0 -96.5 -12.5t-84.5 -41.5h-24zM53 27q0 59 35 110q49 66 139 66q53 0 103 -39 q45 -37 45 -94q0 -94 -78 -127q-80 -33 -80 -45q12 -29 29 -41q47 -41 133 -41t149 41q61 41 62 114v1229q106 35 211 74q106 39 176 104h37v-1145q0 -211 -164 -344q-162 -131 -414 -131q-156 0 -260 62q-123 70 -123 207z" />
<glyph unicode="K" horiz-adv-x="1298" d="M53 2v1595h449v-905q117 15 209 160q84 129 84 246q0 88 -25 143l-59 111q0 25 147 135l176 131q45 -39 78 -119q35 -86 35 -147q0 -51 -27 -142q-25 -86 -63 -147q-63 -98 -111 -145q-100 -100 -106 -113l438 -631q-14 -25 -125 -106q-139 -104 -250 -138l-381 699 l-20 -15v-612h-449z" />
<glyph unicode="L" horiz-adv-x="1273" d="M53 6v1593h436v-1415q0 -41 25 -59q23 -16 61 -16q23 2 43 2q82 0 109 16q20 20 111 86q39 27 129 70q84 41 84 57q-47 117 -76 213q-78 246 -78 401q0 78 25 133q33 74 96 74q76 0 76 -67q0 -31 -9 -41q-10 -14 -36 -15q-23 0 -37 11q-10 10 -17.5 16t-9.5 8 q-10 -16 -20 -55q-10 -41 -11 -70q0 -133 107 -450q88 -266 182 -469q-2 -2 -8 -7.5t-8 -7.5q-12 -8 -21 -8h-1153z" />
<glyph unicode="M" horiz-adv-x="1689" d="M43 10v1592h430v-162q2 -25 29 -25q55 0 137 55l188 125q47 0 109 -69l125 -146q43 0 164 101l125 100q39 0 125 -119q68 -95 116 -215q35 -84 49 -162q16 -86 17 -194q0 -125 -23 -219q-23 -96 -71 -185q-57 -104 -80 -137q-15 -22 -56 -74l-90 -104l-71 -70 q-2 -8 -2 -24q14 0 166 51q154 52 190 74h22v-193h-458q-29 25 -29 35q63 125 119 309q51 172 51 359q0 184 -74 368q-74 182 -157 183l-13 -13q-16 -20 -16 -34v-1207h-422v1198q0 43 -25 74q-31 39 -83 39q-35 0 -50 -10q-12 -8 -12 -35v-1266h-430z" />
<glyph unicode="N" horiz-adv-x="1368" d="M39 1403q4 4 162 96l153 86q47 0 117 -131q33 -63 61 -63q34 0 154 67l240 141q34 -12 55 -24q63 -35 119 -88q117 -117 172 -252t55 -293q0 -133 -35 -254q-33 -111 -100 -231q-20 -35 -78 -103q-49 -58 -98 -104q-31 -27 -41 -41q-16 -20 -35 -41l-78 -59 q-25 -18 -24 -31q0 -8 16 -8q46 6 74 12q174 39 295 92h45v-168h-574v31q147 137 217 336q51 145 52 299q0 229 -144 436q-133 195 -252 195q-47 0 -47 -46v-1251h-442v1321q0 20 -12 39q-4 6 -13.5 18.5t-13.5 18.5z" />
<glyph unicode="O" horiz-adv-x="1376" d="M33 741q0 59 12 115q14 61 51 154q29 72 68 131q39 61 94 110q133 119 201 162l143 92q16 10 40 27.5l32 23.5q76 49 96 50q43 0 201 -133q160 -135 225 -232q63 -96 98 -180q63 -145 64 -270q0 -162 -84 -318q-59 -111 -127 -172q-53 -53 -217 -164q-201 -133 -273 -133 q-39 0 -170 68q-172 88 -294 233q-160 190 -160 436zM371 1006q0 -172 108 -390q137 -268 377 -421q137 123 137 387q0 169 -104 381q-131 262 -363 413q-82 -90 -118 -174q-37 -82 -37 -196z" />
<glyph unicode="P" horiz-adv-x="1419" d="M18 1571v35q59 -10 129 -17q106 -8 187 -8q106 0 188 8q145 16 199 17q264 0 465 -150q205 -152 205 -348q0 -147 -113 -277q-154 -174 -447 -174q-135 0 -215 50l-94 73v-766h-479v1524q0 15 -25 33zM532 1303q0 -29 5 -250q0 -47 1 -92.5t2 -68t1 -28.5q41 45 77 45 q27 0 46 -18q20 -20 20 -45q0 -33 -20 -53q-6 -4 -11.5 -6.5t-8.5 -4.5l-3 -2q4 -4 8 -18l66 -6q113 0 162 108q39 90 38 269q0 166 -34 251q-53 123 -195 123q-63 0 -96 -26q-58 -49 -58 -178z" />
<glyph unicode="Q" horiz-adv-x="1437" d="M35 774q0 180 69 289q35 51 166 184q33 33 219 187q221 178 265 178q39 0 145 -76q131 -92 303 -266q113 -113 160 -215q49 -109 49 -242q0 -114 -55 -252q-55 -139 -131 -217q-25 -29 -101 -90q-98 -80 -217 -152l-49 -28q-49 -33 -49 -45q0 -25 154 -90 q143 -57 208 -72q6 -2 31 -2h39h37q20 0 39 -6q-14 -14 -51 -33q-20 -10 -39 -18.5t-39 -16.5l-84 -74q-31 -25 -47 -24q-49 0 -166 110q-119 113 -219 113q-68 0 -129.5 -49t-73.5 -49q-27 0 -27 35q0 25 74 79q12 10 96 72q-133 78 -229 146q-109 76 -197 188 q-74 98 -112.5 206.5t-38.5 229.5zM369 1061q0 -180 75 -332q61 -123 197 -264q104 -104 266 -250q72 68 109 207q29 109 28 186q0 101 -43 221q-45 123 -118 228q-57 84 -219 203q-43 33 -148 100q-37 0 -92 -129t-55 -170z" />
<glyph unicode="R" horiz-adv-x="1515" d="M12 1602l11 14q119 -20 221 -33q63 -8 106 -8q61 6 152 12q86 6 194 6q209 0 318 -34q160 -55 278 -220l70 -102q29 -53 29 -129q0 -219 -203 -338q-217 -88 -270 -115q16 -25 223 -108q86 -35 86 -55q-23 -41 -35 -78t-12 -109q0 -137 98 -190q70 -39 211 -39 q-12 -18 -78 -49q-84 -39 -164 -39q-129 0 -270 90q-168 106 -205 260q-8 35 -10 65q-2 27 -2 48q0 43 6 104t6 68q0 31 -110 75q-70 27 -117 95l-29 -23v-760h-461v1508q0 14 -22 47q-21 29 -21 37zM535 899q0 -8 6 -20l4 -5q6 6 12 13.5t10 10.5t4 5q3 6 19 6h26 q33 0 53.5 -14t20.5 -43q0 -12 -10 -27q-9 -12 -31 -24v-23q2 0 19.5 -5t29.5 -7q10 0 19 -2q115 0 168 125q41 100 41 260q0 156 -68 260q-66 102 -178 102q-33 0 -90 -47q-55 -46 -55 -92v-473z" />
<glyph unicode="S" horiz-adv-x="1323" d="M29 266v33q96 72 166 137q84 82 116 82q94 0 248 -67q123 -55 162 -84q53 -41 94 -93q29 -35 49 -34q31 0 53.5 38.5t22.5 88.5q0 127 -205 239l-385 201q-209 135 -209 309q0 84 52 160q72 104 229 172q375 160 409 160q6 0 105 -109q51 -57 106 -96q31 -25 74 -41 q129 -55 133 -59q-20 -20 -135 -78q-14 -8 -117 -58q-14 4 -25 7.5t-22 5.5q-119 33 -190 69q-94 53 -146 150q-18 35 -43 35q-31 0 -63 -37q-39 -45 -39 -107q0 -47 250 -170q102 -49 231 -123q190 -114 246 -172q94 -98 94 -239q0 -127 -59 -213q-63 -92 -180 -158 q-61 -35 -228 -115q-201 -98 -217 -98l-137 109q-76 59 -143 88q-57 23 -146 47q-75 20 -151 20z" />
<glyph unicode="T" horiz-adv-x="1333" d="M25 1331q94 113 276 199q176 84 393 84q57 -4 80 -6q106 -12 250 -45q18 -2 143 -62q135 -68 136 -102q0 -23 -50 -64l-44 -29.5t-35 -23.5l-76 -78q-41 -43 -64 -43l-114 92q-125 92 -205 93q-76 -41 -109 -80q-113 -129 -112 -344q0 -246 157.5 -428.5t386.5 -182.5h35 q55 0 103 21q68 29 108 59q10 -18 10 -29q-14 -84 -51 -139q-59 -88 -178 -157v-269l53 -33q27 -14 27 -45q0 -14 -17 -34q-14 -18 -32 -19q-10 2 -33 15q-33 25 -33 73v277q-18 6 -24 6q-10 -2 -101 -19q-57 -10 -96 -10q-264 0 -444 191q-182 193 -183 473q0 152 88 336 q90 190 217 274l65 27.5t40 15.5q33 12 61 37q-37 23 -118 37q-78 14 -119 14q-51 0 -140 -16q-147 -29 -208 -66h-43zM1030 346v688h35v-688h-35z" />
<glyph unicode="U" horiz-adv-x="1349" d="M37 659q0 164 74 361q76 203 200 334q6 6 109 82q74 51 104 108l-18 6l-95 -28.5t-69 -20.5q-176 -57 -213 -80h-29v191h555l4 -21q0 -16 -34 -57q-106 -119 -168 -266q-14 -37 -37 -158q-23 -125 -23 -178q0 -186 105 -387q123 -238 293 -238q18 0 47 15v1290h448v-1327 q0 -16 15 -37q16 -23 16 -35q0 -20 -55 -47q-72 -31 -76 -33l-129 -78q-49 -31 -55 -30q-35 0 -95 98q-57 98 -77 104l-398 -217q-152 49 -270 228q-129 190 -129 421z" />
<glyph unicode="V" horiz-adv-x="1314" d="M35 1579v29h430q18 -23 80 -162q33 -74 133 -326l113 -297q55 -143 88 -184q37 39 122 244q104 246 105 374q0 123 -86 173q-55 31 -152 30l-6 19q0 43 47 94q61 66 160 65q88 0 150 -61q63 -63 63 -152q0 -94 -117 -358l-164 -354l-153 -357l-90 -194q-57 -119 -86 -158 q-29 29 -62 107q-29 68 -96 245l-170 430q-51 121 -176 474q-82 229 -133 319z" />
<glyph unicode="W" horiz-adv-x="1832" d="M35 797q0 279 145 469l226 241l-23 19q-27 0 -94 -27q-88 -33 -172 -90h-37v190h469q-102 -145 -154 -260q-53 -119 -53 -239q0 -250 115 -441q100 -170 282 -282h21v37q-43 49 -82 188q-33 106 -33 213q0 92 29 195q18 66 71 182q12 27 52 86l55 84q6 8 35 29 q6 4 19.5 14t19.5 14q53 51 59 74t-6 23q-6 -2 -28.5 -7.5t-32.5 -9.5q-70 -25 -211 -96h-37v196h467v-36q-74 -84 -123 -209q-45 -117 -45 -242q0 -90 28 -215q29 -121 72 -205q47 -98 117 -186q66 -84 170 -166l4 4q10 10 10 25v1101q0 12 -10 54l-19 69l408 2v-1054 l-303 -277q-117 -117 -246 -207l-49 -32q-31 0 -123 79l-203 177q-16 0 -147 -137.5t-160 -137.5q-31 0 -141 98q-139 123 -221 273q-68 129 -90 198q-31 99 -31 222z" />
<glyph unicode="X" horiz-adv-x="1488" d="M35 164l74 139q80 141 92 141t112 -43q106 -45 133 -45q18 0 39 27l64 98q43 55 61 84q27 39 27 80q0 47 -24.5 84t-57.5 37h-313q20 51 30 72q41 72 74 71q12 0 41 -3t41 -3q29 0 53 8q20 6 21 29q0 45 -99 211q-125 209 -251 242q8 10 32 26l142 72l102 63q12 8 82 50 q63 0 213 -205l145 -205l138 174q143 174 237 174h150q23 0 51.5 -14.5t28.5 -24.5l-68 -133q-72 -133 -92 -133q-14 0 -72 31t-74 30q-84 0 -174 -102q-78 -86 -78 -131q0 -37 37 -100q37 -66 82 -66h336q-39 -88 -100 -119q-45 -23 -125 -22h-66l-8 -23l342 -700v-37h-461 l-262 528q-45 -35 -84 -88q-55 -74 -192 -299q-8 -12 -45 -82q-29 -35 -43 -34l-84 32.5l-62 24.5q-145 64 -145 84z" />
<glyph unicode="Y" horiz-adv-x="1507" d="M31 1423q4 6 15 19.5l21.5 27l20.5 27.5l70 100h528v-30l-76 -142q-33 -78 -32 -133q0 -74 32 -153q33 -82 107 -158q51 -53 129 -127q132 -123 166 -123q41 0 106 94q80 117 80 248q0 115 -37 184l-108 146l303 209q29 -6 63 -64q55 -90 56 -235q0 -127 -70 -264 q-71 -138 -191 -258l-258 -248l-55 -54l-74 -69l-69 -64q-43 -41 -43 -59l30 -39h537v-49l-152 -201h-698v37q88 152 133 205l137 164q-170 113 -286 270q-123 172 -123 360q0 154 90 289q104 132 129 166q-10 4 -41 12q-8 2 -31 2q-82 0 -174 -26q-210 -64 -235 -64z" />
<glyph unicode="Z" horiz-adv-x="1236" d="M39 143q0 95 160 332l168 246l192 299q57 90 78 127q78 129 78 153q-4 10 -10 23q-14 23 -37 23q-43 -14 -133.5 -28.5t-139.5 -14.5q-53 0 -153 40q-98 41 -99 89q0 10 82 61l148 92h24q14 -84 103 -137q72 -41 121 -41q59 0 143 39q109 49 205 139q25 -16 127 -139 q111 -131 110 -164q0 -27 -170 -295l-164 -266q-117 -197 -221 -338q-125 -172 -125 -205q0 -14 21 -35q16 -16 35 -16h282q59 0 107 59q41 55 57 142h31q27 -57 74 -127q43 -58 43 -80q0 -28 -50 -80q-31 -33 -53 -33h-893q-59 0 -100 41t-41 94z" />
<glyph unicode="[" horiz-adv-x="495" d="M55 -59v1718h381v-12h10v-164h-198v-1370h198v-172h-391z" />
<glyph unicode="\" horiz-adv-x="0" d="M68 1669l133 76l913 -1786l2 -8l6 -14l-129 -76z" />
<glyph unicode="]" horiz-adv-x="487" d="M33 -47v160h198v1374h-198v172h391v-1718h-381v12h-10z" />
<glyph unicode="^" horiz-adv-x="677" d="M35 1235q0 34 67 123l60 74q53 76 67 98q63 82 93 82q41 0 77 -39l74 -90q49 -49 110.5 -135t61.5 -109q-25 -33 -45 -53q-57 -57 -96 -58q-8 0 -178 222q-51 -90 -68 -111q-74 -111 -96.5 -111t-87.5 56q-39 33 -39 51z" />
<glyph unicode="_" horiz-adv-x="1044" d="M-10 -133l10 10v12h1057v-182h-1067v160z" />
<glyph unicode="`" horiz-adv-x="573" d="M63 1571h222l229 -260l-12 -13l-4 -16l-346 74z" />
<glyph unicode="a" horiz-adv-x="774" d="M39 369q0 84 16 143q16 57 97 162q68 86 184 135q92 40 92 68q0 46 -68 92q-70 47 -90 47q-4 0 -51 -15q-40 -12 -67 -12q-33 0 -62 14.5t-29 47.5q0 41 39 41q23 0 56 -11q20 -4 22 -4q39 0 119 39l168 82q35 0 129 -82q111 -94 111 -166v-741q0 -14 16 -47l20 -37 q0 -16 -90 -78q-86 -59 -104 -59q-33 0 -72 61l-39 72q-43 -14 -110 -55q-113 -70 -125 -70q-20 0 -60 51q-102 132 -102 322zM270 500q0 -92 43 -191q43 -100 76 -100q20 6 31 8l-6 524q-61 -20 -102.5 -106t-41.5 -135z" />
<glyph unicode="b" horiz-adv-x="843" d="M43 213v1157q0 33 115 80q102 41 162 41h8v-344q25 -14 32 -14q16 0 107 36q89 37 98 37q49 0 137 -145q109 -180 109 -377q0 -127 -53 -250q-80 -182 -269 -295q-16 -12 -100 -67q-102 -68 -121 -68q-29 0 -127 86t-98 123zM342 317q0 -27 45 -71.5t64 -44.5 q53 0 88 104q33 100 32 201q0 186 -98 366q-78 143 -125 162q0 -274 -2 -438q0 -70 -1 -137.5t-2 -100.5t-1 -41z" />
<glyph unicode="c" horiz-adv-x="696" d="M35 580q0 168 78 317q51 102 125 174l65 68q70 68 96 67q33 -57 70 -98q39 -43 86 -43q31 0 70 22h39v-30q-71 -92 -123 -123q-55 -33 -140 -33q-37 0 -79 14q-35 12 -84 46q-14 -31 -21 -60q-8 -45 -8 -82q0 -152 92 -311q109 -190 287 -295q-10 -20 -98.5 -114.5 t-108.5 -94.5q-10 2 -27 10q-66 37 -157 146q-90 106 -125 196q-37 95 -37 224z" />
<glyph unicode="d" horiz-adv-x="870" d="M31 553q0 59 32 158q35 106 74 174q16 31 135 168q126 147 148 147q20 0 37 -14q4 -4 10 -9.5t10 -8.5t6 -5l15 15q10 10 10 22v227q37 35 113 52q84 16 120 32h43v-1259q0 -23 17 -51q12 -23 45 -56q-18 -27 -121 -92q-63 -41 -82 -41q-41 0 -78 72t-59 72 q-10 0 -92 -70q-80 -68 -101 -68q-41 0 -110 78q-172 187 -172 457zM254 750q0 -113 47 -232q66 -164 191 -250q0 82 4 332q0 53 1 103.5t2 76t1 31.5q0 20 -49 76q-82 92 -117 127q-39 -41 -64 -158q-12 -69 -16 -106z" />
<glyph unicode="e" horiz-adv-x="712" d="M31 584q0 66 30 151q33 92 84 172q25 39 140 160q123 131 157 131q4 0 52 -61l40.5 -56.5l36.5 -48.5q4 -4 54 -76q55 -80 55 -96q0 -68 -174 -215t-174 -170q0 -61 282 -276q-14 -23 -106 -103q-96 -84 -111 -84t-67 37q-49 35 -111 96q-98 98 -147 234q-41 113 -41 205 zM227 770q0 -68 17 -127q15 -55 43 -55q25 0 90 65q63 63 63 84q0 12 -41 78q-33 51 -98 143h-22q-18 -45 -37 -110q-15 -49 -15 -78z" />
<glyph unicode="f" horiz-adv-x="600" d="M31 1161q31 16 63.5 20.5t32.5 47.5q0 61 -37 90q-20 16 -20 37q4 10 14 16q59 55 170 117q82 45 164 76q2 0 11 3t17 5q53 -33 60 -37q61 -43 61 -61q0 -16 -47 -57.5t-71 -41.5q-12 0 -72 47q-29 23 -43 23q-10 0 -19 -10l-14 -15q53 -66 76 -112q0 -2 20 -74 q14 -45 27 -53q23 -14 41 -15q25 0 37 -4q8 -2 8 -35q0 -43 -45 -51t-45 -59v-1022h-291v1053q-40 25 -55 36q-29 23 -43 76z" />
<glyph unicode="g" horiz-adv-x="905" d="M35 543q0 162 166 366q53 66 198 187q135 111 156 110l50 -43.5l48.5 -42t30.5 -28.5q131 -123 131 -162v-768q0 -25 33 -78t33 -119q0 -117 -142 -223q-143 -109 -280 -109q-78 0 -156 33q-80 35 -80 76q29 43 39 55q49 55 103 56q33 -53 75 -95q41 -41 103 -41 q53 0 100 41q49 43 49 101q0 27 -80 143q-78 115 -98 115q-27 0 -90 -51q-66 -53 -98 -54q-47 0 -158 160q-133 193 -133 371zM279 735q0 -147 63 -280q86 -180 162 -219v651q-14 20 -26.5 34.5t-18.5 24.5q-47 59 -70 60q-43 0 -88 -156q-22 -80 -22 -115z" />
<glyph unicode="h" horiz-adv-x="843" d="M41 10v1473l254 98h51v-524h37l96 65q102 66 115 66q6 -8 17.5 -21.5t15.5 -19.5q80 -111 131 -256q33 -98 33 -105q18 -78 18 -186q0 -188 -86 -391q-100 -248 -285 -365l-8 17q53 80 88 209q37 135 37 325q0 133 -35 289q-49 209 -143 283h-29v-957h-307z" />
<glyph unicode="i" horiz-adv-x="466" d="M37 1335q0 16 59.5 69.5t85.5 53.5q23 0 35 -18q34 -43 172 -43q-18 -51 -74 -90q-61 -47 -139 -47q-39 0 -90 22q-49 20 -49 53zM53 1020q23 29 107 96q98 80 112 80q31 0 88 -106q53 -100 54 -154v-930h-308v930q0 14 -12 33q-16 22 -41 51z" />
<glyph unicode="j" horiz-adv-x="446" d="M27 1343q10 12 26.5 34t22.5 28q57 63 92 63l35 -34q39 -35 174 -35v-23l-98 -80q-53 -37 -113 -36q-37 0 -88 26t-51 57zM43 1036q16 25 113 99q94 72 106 71q33 0 84 -108q53 -113 53 -209v-815q0 -8 7 -27q16 -41 16 -113q0 -115 -60 -172q-31 -31 -139 -79h-53 q41 41 59 65q37 47 37 94q0 96 -67 154l-46.5 28.5t-26.5 17.5t-14.5 9l-15.5 8v873q0 18 -12 47q-10 24 -41 57z" />
<glyph unicode="k" horiz-adv-x="837" d="M49 10v1467q25 23 82 47q123 49 176 73h45v-587q43 0 160 77l125 80q25 0 72 -71q53 -82 53 -176q0 -113 -90 -191t-90 -102q0 -10 53 -82q53 -74 59 -92q2 -10 33 -150q2 -12 12 -43q10 -29 39 -55q31 -29 31 -39q-66 -74 -74 -82q-80 -80 -121 -80q-96 0 -151 283 q-31 158 -74 211h-27q-10 -10 -10 -23v-465h-303zM362 610q70 8 113 74q35 53 35 102q0 53 -25 93q-33 57 -67 57q-6 -2 -16.5 -6t-12.5 -4q-27 -18 -27 -41v-275z" />
<glyph unicode="l" horiz-adv-x="391" d="M47 8v1415q12 8 139 66q106 47 154 59v-1540h-293z" />
<glyph unicode="m" horiz-adv-x="1202" d="M31 1028q0 31 108 121q63 51 100 51t78 -65.5t58 -65.5q29 0 139.5 61.5t124.5 61.5q18 0 55 -41q18 -20 80 -82q23 0 94 39l156 84q29 0 80 -64q53 -66 53 -96v-1030h-299v928q0 29 -14 41q-16 12 -45 22l-11 -10q-6 -6 -6 -20v-961h-313v952l-29 23q-10 8 -20 8 q-2 0 -37 -22v-961h-307v928q0 25 -31 63q-14 17 -14 35z" />
<glyph unicode="n" horiz-adv-x="878" d="M35 1051q0 12 112 73q114 61 129 62q33 0 74 -70q40 -68 56 -67q25 0 151 67q129 70 131 70q25 0 66 -58q47 -66 47 -145v-694q0 -23 16 -62q14 -37 33 -71q0 -27 -96 -101q-98 -76 -115 -75q-18 0 -68 69q-57 80 -57 127v690q0 29 -22 78q-23 47 -52 47 q-16 0 -32.5 -22.5t-16.5 -34.5v-924h-301v936q0 27 -29 66q-26 35 -26 39z" />
<glyph unicode="o" horiz-adv-x="819" d="M37 557q0 96 31 182q31 88 79 152q242 317 277 317q18 0 119 -104q113 -115 155 -191q43 -74 64 -145q25 -84 24 -158q0 -111 -38 -202q-27 -61 -64 -111q-100 -135 -109 -145q-117 -143 -155 -144q-31 0 -74 37l-37.5 31.5t-44.5 38.5q-109 88 -168 198q-59 113 -59 244 zM227 801q0 -195 76 -309q53 -84 250 -240q20 18 27 41q6 18 6 55q0 182 -88 340q-133 238 -226 238q-27 0 -36 -41q-9 -35 -9 -84z" />
<glyph unicode="p" horiz-adv-x="923" d="M25 193q10 27 28 49q29 29 41 39v632q0 20 -20 56l-43 78q0 14 102.5 85.5t112.5 71.5q14 0 59 -51q47 -53 76 -111q133 53 221 119q33 25 47 25q51 0 142 -189q98 -207 98 -376q0 -176 -64 -295q-66 -121 -209 -226l-63 -55q-40 -31 -80 -31q-23 0 -43 11h-27 q-8 -35 -8 -97q0 -20 2 -39q3 -28 0 -30q-6 -35 -96 -66q-150 -53 -186 -74q-20 27 -21 41v355q0 23 -35 51zM403 238q10 -4 80 -48q35 -23 41 -22q41 0 72 141q25 109 25 168q0 180 -43 291q-43 113 -136 182h-22q-6 -8 -12 -20q-4 -8 -5 -17v-675z" />
<glyph unicode="q" horiz-adv-x="819" d="M35 518q0 53 16 156q14 94 41 151q25 53 201 209q193 174 274 174q18 0 115 -90q98 -92 98 -114v-1149q0 -33 -39 -52l-188 -79h-51v213q0 76 -6.5 106.5t-28.5 30.5q-27 0 -92.5 -33t-100.5 -33q-57 0 -139 142q-100 167 -100 368zM260 729q0 -121 55 -280 q63 -180 160 -271q0 113 4 449q2 168 2 282q0 12 -41 59.5t-59 47.5q-40 0 -80 -98q-41 -101 -41 -189z" />
<glyph unicode="r" horiz-adv-x="677" d="M29 1055q12 25 90 84q80 61 112 61q25 0 66 -41l80 -82q18 0 79.5 61.5t65.5 61.5q51 -37 64 -49q63 -63 63 -133q0 -16 -41 -68q-84 -94 -102 -94q-10 0 -39 31q-35 41 -70 63v-948h-301v948q0 18 -22 53.5t-45 51.5z" />
<glyph unicode="s" horiz-adv-x="731" d="M41 168q14 49 76 100q71 61 135 62q68 0 164 -72q61 -45 78 -53l8 24q0 20 -19 52q-20 35 -75 90l-75 74.5l-61.5 61l-44 44l-31 31l-12.5 12.5q-123 143 -123 248q0 113 146 243q131 119 207 119l94 -78q96 -84 96 -92q0 -23 -53 -82q-51 -57 -82 -57q-57 0 -123 53 q-27 20 -51.5 40l-34.5 28l-10 8l-14 -12q76 -119 215 -258q254 -260 254 -363q0 -61 -33 -127q-35 -68 -90 -108q-162 -121 -179 -131q-35 -20 -57 -21q-25 29 -98 76q-76 49 -207 88z" />
<glyph unicode="t" d="M35 1102v100q137 0 258 109q96 90 119 180h30v-229q0 -39 52 -60v-98h-45v-828q0 -33 26.5 -77.5t26.5 -48.5q0 -16 -99 -78q-102 -63 -120 -64q-37 0 -80 62q-41 59 -41 102v930h-127z" />
<glyph unicode="u" horiz-adv-x="854" d="M43 1047q12 8 14 12l45 45l58 59q55 55 67 56q20 0 76 -66q70 -78 70 -158v-725q0 -29 26.5 -53t46.5 -24q12 0 19 4l12 8v983h299v-942q0 -39 29 -74q27 -33 26 -37q0 -23 -102 -76q-104 -55 -121 -55q-27 0 -61 41l-70 86q-23 0 -137.5 -63.5t-132.5 -63.5 q-31 0 -70 55q-41 57 -41 115v725q0 18 -18 59q-10 23 -18.5 47t-16.5 42z" />
<glyph unicode="v" horiz-adv-x="776" d="M43 885v272q18 10 119 55l133 60h20v-352q0 -25 23 -156q18 -113 63 -246q35 -100 74 -162q35 -57 66 -69q25 39 45 129q18 84 18 174q0 133 -45 241.5t-127 190.5l184 184q46 -46 68 -86q70 -125 70 -309q0 -121 -23 -229q-20 -102 -55 -187q-55 -121 -58 -125 q-31 -61 -86 -147q-33 -53 -47 -80q-29 -35 -49 -35q-37 0 -127 103q-113 131 -180 327q-23 70 -55 217q-31 142 -31 230z" />
<glyph unicode="w" horiz-adv-x="1087" d="M39 750q0 281 70 350q29 25 274 114h25v-28q-31 -41 -54 -123q-29 -100 -28 -234q0 -150 39 -278q39 -127 100 -209q37 25 37 53q-39 106 -64 215q-27 119 -26 234q0 219 57 260q115 37 213 88q14 -14 14 -59.5t-2 -85.5q0 -16 -1 -35t-2 -29t-1 -14q0 -187 55 -363 q43 -139 109 -233q25 16 31 51q8 49 8 106q0 205 -45 320l-105 205q0 18 70 86q72 68 86 67q25 0 86 -135q74 -160 74 -297q0 -88 -29 -196q-31 -117 -67 -185l-24.5 -47l-14.5 -27.5l-7.5 -13.5t-5.5 -10q-2 -6 -51 -86q-29 -57 -47 -86q-51 -82 -68 -82q-27 0 -192 233 q-37 -27 -147 -198q-47 -72 -66 -72q-12 0 -61 60q-119 139 -181 313q-27 72 -43 174q-16 105 -16 197z" />
<glyph unicode="x" horiz-adv-x="808" d="M31 190q0 14 45 72q94 121 108 121q12 0 58 -45q46 -46 86 -62q2 4 7 11.5t7 9.5q6 6 6 18q0 14 -39 131q-41 123 -67.5 229.5t-75.5 194.5q-47 86 -113 140l197 184q78 -45 131 -143q20 -39 41 -39q27 0 90 96q66 98 88 98q45 -39 59 -57q63 -72 64 -133 q0 -57 -123 -176q-29 16 -49 41q-37 47 -64 69q-31 -33 -30 -41q23 -61 37 -108q51 -150 84 -275l26 -98q4 -16 33 -92q37 -86 86 -117q10 -6 53 -18q0 -10 -45 -45q-16 -12 -37 -33l-78 -84q-41 -35 -57 -35q-37 0 -92 76q-14 23 -28.5 43l-26 36.5t-27.5 43.5 q-47 -20 -119 -142q-29 -49 -59 -49q-18 0 -101 88q-18 18 -75 90z" />
<glyph unicode="y" horiz-adv-x="808" d="M12 -317q0 131 131 223t131 127q-47 55 -100 145q-53 88 -94 221q-28 86 -37 148q-10 68 -10 115v53q0 39 2 57q0 23 1 70t1 71q0 68 16 150q10 57 110.5 69.5t141.5 41.5h31q4 -45 4 -50q0 -25 -6 -67q-16 -109 -17 -178q0 -141 29 -289q40 -197 123 -314q51 18 88 173 q37 150 37 280q0 96 -37 232q-51 158 -68 223l19 12h217q16 -23 39 -109q20 -80 20 -194q0 -125 -41 -283q-37 -145 -118 -274q-104 -166 -144 -213q-53 -47 -168 -182q-37 -28 -61 -68q-23 -37 -23 -84q0 -37 9 -59q20 -47 22 -56q0 -12 -74 -51q-59 -29 -127 -69 q-29 33 -36 59q-11 35 -11 70z" />
<glyph unicode="z" horiz-adv-x="905" d="M35 121q0 66 65 201q70 143 254 428q84 115 88 122q59 88 60 125q0 45 -37 45q-47 0 -113 -36q-65 -37 -123 -86q-45 31 -92 96q-33 41 -33 61q0 31 63.5 82t86.5 51q25 0 57.5 -47t71.5 -47q33 0 182.5 47t161.5 47l70 -118q70 -121 69 -134q-2 0 -63 -92l-146 -221 q-45 -68 -159 -258q-23 -33 -64 -111q-59 -109 -59 -133q0 -23 22 -28q20 -6 58 -6q100 0 151 38l101 93q8 0 69.5 -80t61.5 -97q-18 -23 -45 -34q-45 -20 -88 -21h-588q-33 14 -41 21q-41 31 -41 92z" />
<glyph unicode="{" horiz-adv-x="600" d="M29 705v169q70 18 92 66q23 45 22 115v338q0 94 47 176q39 80 152 98l88 2l88 2h37v-198q-100 0 -147.5 -33t-47.5 -146v-274q0 -68 -20 -139q-18 -51 -94 -99q74 -41 94 -102q6 -27 12 -64q8 -53 8 -75v-271q0 -119 43 -149q45 -33 152 -33v-190l-8 2l-8 -2h-13h-10 q-172 0 -272.5 47t-100.5 256v309q0 25 -4 65q-2 27 -16 58q-20 43 -94 72z" />
<glyph unicode="|" horiz-adv-x="565" d="M184 -59v1706h222v-1706h-222z" />
<glyph unicode="}" horiz-adv-x="600" d="M33 96q96 0 147 35q49 33 49 145v273q0 76 19 137q18 59 96 100q-72 37 -96 101q-6 23 -12 59q-6 33 -7 82v272q0 113 -45 152q-12 8 -59 23q-40 12 -92 12v184l20 2h8h11q170 0 274 -41q98 -43 98 -262v-311q0 -37 5 -66q2 -14 16 -53q27 -53 94 -74v-170 q-70 -18 -92 -65q-23 -49 -23 -117v-336v-4q0 -94 -45 -172q-47 -82 -153 -94l-41 -4q-25 0 -45 -4h-47h-41h-23l-16 2v194z" />
<glyph unicode="~" horiz-adv-x="1097" d="M61 1321q43 98 113 174t186 76q53 0 105 -23l100 -45l58 -30l59 -25l37 -10l41 -4q59 0 100 41q33 33 66 84l4 8l4 8l115 -92q-37 -78 -115 -170q-74 -74 -186 -74q-47 0 -58 2q-16 4 -53 19q-25 10 -49 22q-33 16 -43 23l-94 45q-33 16 -99 22q-66 0 -108 -45 q-45 -47 -72 -96z" />
<glyph unicode="&#xad;" d="M33 590v100v160h442v-260h-442z" />
<glyph unicode="&#x2000;" horiz-adv-x="870" />
<glyph unicode="&#x2001;" horiz-adv-x="1744" />
<glyph unicode="&#x2002;" horiz-adv-x="870" />
<glyph unicode="&#x2003;" horiz-adv-x="1744" />
<glyph unicode="&#x2004;" horiz-adv-x="581" />
<glyph unicode="&#x2005;" horiz-adv-x="434" />
<glyph unicode="&#x2006;" horiz-adv-x="288" />
<glyph unicode="&#x2007;" horiz-adv-x="288" />
<glyph unicode="&#x2008;" horiz-adv-x="217" />
<glyph unicode="&#x2009;" horiz-adv-x="348" />
<glyph unicode="&#x200a;" horiz-adv-x="94" />
<glyph unicode="&#x2010;" d="M33 590v100v160h442v-260h-442z" />
<glyph unicode="&#x2011;" d="M33 590v100v160h442v-260h-442z" />
<glyph unicode="&#x2012;" d="M33 590v100v160h442v-260h-442z" />
<glyph unicode="&#x2013;" horiz-adv-x="1024" d="M33 590v260h944v-260h-944z" />
<glyph unicode="&#x2014;" horiz-adv-x="2048" d="M33 590v260h1968v-260h-1968z" />
<glyph unicode="&#x2018;" horiz-adv-x="573" d="M63 1571h222l229 -260l-12 -13l-4 -16l-346 74z" />
<glyph unicode="&#x2019;" horiz-adv-x="294" d="M55 1606h189l-45 -592h-76l-12 10h-11z" />
<glyph unicode="&#x201c;" horiz-adv-x="591" d="M55 1606h189l-45 -592h-76l-12 10h-11zM342 1606h190l-47 -592h-73l-11 10h-12z" />
<glyph unicode="&#x201d;" horiz-adv-x="591" d="M55 1606h189l-45 -592h-76l-12 10h-11zM342 1606h190l-47 -592h-73l-11 10h-12z" />
<glyph unicode="&#x2026;" horiz-adv-x="591" d="M39 1364l31 90q37 96 67 143q61 -20 92 -28q72 -29 72 -62q0 -23 -33 -121q-29 -88 -49 -131l-88 -186q-10 -25 -10 -27q-12 -23 -31 -22q-12 0 -22.5 8t-10.5 21q33 70 47 104q47 102 48 119q0 18 -56 37q-57 18 -57 55zM305 1298q0 10 29 80q61 147 76 148 q20 0 102 -47q45 -27 45 -43q0 -45 -72 -232q-80 -201 -133 -254q-4 2 -12 7.5t-12 7.5q-14 6 -15 24l99 221q-41 33 -90 54q-17 7 -17 34z" />
<glyph unicode="&#x202f;" horiz-adv-x="348" />
<glyph unicode="&#x205f;" horiz-adv-x="434" />
<glyph unicode="&#x2122;" horiz-adv-x="3022" d="M1376 10v1592h430v-162q2 -25 29 -25q55 0 137 55l188 125q47 0 109 -69l125 -146q43 0 164 101l125 100q39 0 125 -119q68 -95 116 -215q35 -84 49 -162q16 -86 17 -194q0 -125 -23 -219q-23 -96 -71 -185q-57 -104 -80 -137q-15 -22 -56 -74l-90 -104l-71 -70 q-2 -8 -2 -24q14 0 166 51q154 52 190 74h22v-193h-458q-29 25 -29 35q63 125 119 309q51 172 51 359q0 184 -74 368q-74 182 -157 183l-13 -13q-16 -20 -16 -34v-1207h-422v1198q0 43 -25 74q-31 39 -83 39q-35 0 -50 -10q-12 -8 -12 -35v-1266h-430zM25 1331 q94 113 276 199q176 84 393 84q57 -4 80 -6q106 -12 250 -45q18 -2 143 -62q135 -68 136 -102q0 -23 -50 -64l-44 -29.5t-35 -23.5l-76 -78q-41 -43 -64 -43l-114 92q-125 92 -205 93q-76 -41 -109 -80q-113 -129 -112 -344q0 -246 157.5 -428.5t386.5 -182.5h35 q55 0 103 21q68 29 108 59q10 -18 10 -29q-14 -84 -51 -139q-59 -88 -178 -157v-269l53 -33q27 -14 27 -45q0 -14 -17 -34q-14 -18 -32 -19q-10 2 -33 15q-33 25 -33 73v277q-18 6 -24 6q-10 -2 -101 -19q-57 -10 -96 -10q-264 0 -444 191q-182 193 -183 473q0 152 88 336 q90 190 217 274l65 27.5t40 15.5q33 12 61 37q-37 23 -118 37q-78 14 -119 14q-51 0 -140 -16q-147 -29 -208 -66h-43zM1030 346v688h35v-688h-35z" />
<glyph unicode="&#xe000;" horiz-adv-x="1205" d="M0 1205h1205v-1205h-1205v1205z" />
<glyph unicode="&#xfb01;" horiz-adv-x="1069" d="M639 1335q0 16 59.5 69.5t85.5 53.5q23 0 35 -18q34 -43 172 -43q-18 -51 -74 -90q-61 -47 -139 -47q-39 0 -90 22q-49 20 -49 53zM655 1020q23 29 107 96q98 80 112 80q31 0 88 -106q53 -100 54 -154v-930h-308v930q0 14 -12 33q-16 22 -41 51zM31 1161q31 16 63.5 20.5 t32.5 47.5q0 61 -37 90q-20 16 -20 37q4 10 14 16q59 55 170 117q82 45 164 76q2 0 11 3t17 5q53 -33 60 -37q61 -43 61 -61q0 -16 -47 -57.5t-71 -41.5q-12 0 -72 47q-29 23 -43 23q-10 0 -19 -10l-14 -15q53 -66 76 -112q0 -2 20 -74q14 -45 27 -53q23 -14 41 -15 q25 0 37 -4q8 -2 8 -35q0 -43 -45 -51t-45 -59v-1022h-291v1053q-40 25 -55 36q-29 23 -43 76z" />
<glyph unicode="&#xfb02;" horiz-adv-x="993" d="M649 8v1415q12 8 139 66q106 47 154 59v-1540h-293zM31 1161q31 16 63.5 20.5t32.5 47.5q0 61 -37 90q-20 16 -20 37q4 10 14 16q59 55 170 117q82 45 164 76q2 0 11 3t17 5q53 -33 60 -37q61 -43 61 -61q0 -16 -47 -57.5t-71 -41.5q-12 0 -72 47q-29 23 -43 23 q-10 0 -19 -10l-14 -15q53 -66 76 -112q0 -2 20 -74q14 -45 27 -53q23 -14 41 -15q25 0 37 -4q8 -2 8 -35q0 -43 -45 -51t-45 -59v-1022h-291v1053q-40 25 -55 36q-29 23 -43 76z" />
<glyph unicode="&#xfb03;" horiz-adv-x="1669" d="M1239 1335q0 16 59.5 69.5t85.5 53.5q23 0 35 -18q34 -43 172 -43q-18 -51 -74 -90q-61 -47 -139 -47q-39 0 -90 22q-49 20 -49 53zM1255 1020q23 29 107 96q98 80 112 80q31 0 88 -106q53 -100 54 -154v-930h-308v930q0 14 -12 33q-16 22 -41 51zM633 1161 q31 16 63.5 20.5t32.5 47.5q0 61 -37 90q-20 16 -20 37q4 10 14 16q59 55 170 117q82 45 164 76q2 0 11 3t17 5q53 -33 60 -37q61 -43 61 -61q0 -16 -47 -57.5t-71 -41.5q-12 0 -72 47q-29 23 -43 23q-10 0 -19 -10l-14 -15q53 -66 76 -112q0 -2 20 -74q14 -45 27 -53 q23 -14 41 -15q25 0 37 -4q8 -2 8 -35q0 -43 -45 -51t-45 -59v-1022h-291v1053q-40 25 -55 36q-29 23 -43 76zM31 1161q31 16 63.5 20.5t32.5 47.5q0 61 -37 90q-20 16 -20 37q4 10 14 16q59 55 170 117q82 45 164 76q2 0 11 3t17 5q53 -33 60 -37q61 -43 61 -61 q0 -16 -47 -57.5t-71 -41.5q-12 0 -72 47q-29 23 -43 23q-10 0 -19 -10l-14 -15q53 -66 76 -112q0 -2 20 -74q14 -45 27 -53q23 -14 41 -15q25 0 37 -4q8 -2 8 -35q0 -43 -45 -51t-45 -59v-1022h-291v1053q-40 25 -55 36q-29 23 -43 76z" />
<glyph unicode="&#xfb04;" horiz-adv-x="1593" d="M1249 8v1415q12 8 139 66q106 47 154 59v-1540h-293zM633 1161q31 16 63.5 20.5t32.5 47.5q0 61 -37 90q-20 16 -20 37q4 10 14 16q59 55 170 117q82 45 164 76q2 0 11 3t17 5q53 -33 60 -37q61 -43 61 -61q0 -16 -47 -57.5t-71 -41.5q-12 0 -72 47q-29 23 -43 23 q-10 0 -19 -10l-14 -15q53 -66 76 -112q0 -2 20 -74q14 -45 27 -53q23 -14 41 -15q25 0 37 -4q8 -2 8 -35q0 -43 -45 -51t-45 -59v-1022h-291v1053q-40 25 -55 36q-29 23 -43 76zM31 1161q31 16 63.5 20.5t32.5 47.5q0 61 -37 90q-20 16 -20 37q4 10 14 16q59 55 170 117 q82 45 164 76q2 0 11 3t17 5q53 -33 60 -37q61 -43 61 -61q0 -16 -47 -57.5t-71 -41.5q-12 0 -72 47q-29 23 -43 23q-10 0 -19 -10l-14 -15q53 -66 76 -112q0 -2 20 -74q14 -45 27 -53q23 -14 41 -15q25 0 37 -4q8 -2 8 -35q0 -43 -45 -51t-45 -59v-1022h-291v1053 q-40 25 -55 36q-29 23 -43 76z" />
</font>
</defs>
</svg>
